<svg width="24" height="10" viewBox="0 0 24 10" fill="none" xmlns="http://www.w3.org/2000/svg">
<path d="M20.1844 5.59045C21.1974 5.59045 22.0189 6.41119 22.0189 7.42466C22.0189 7.50316 22.0125 7.57978 22.0026 7.65547C21.8891 8.55964 21.1191 9.25934 20.1844 9.25934C19.2238 9.25934 18.4372 8.52086 18.3575 7.58096C18.3533 7.52902 18.3495 7.47754 18.3495 7.42419C18.3493 6.41143 19.1707 5.59045 20.1844 5.59045ZM21.1032 6.73343L20.7288 7.10783C20.7579 7.1579 20.7807 7.21149 20.7953 7.2693H21.3229C21.2954 7.06905 21.2186 6.8869 21.1032 6.73343ZM21.3246 7.5866H20.7934C20.7783 7.64277 20.7563 7.69683 20.7271 7.74572L21.1022 8.1206C21.2179 7.96806 21.2966 7.78544 21.3246 7.5866ZM20.3428 8.56458C20.5414 8.53708 20.7222 8.45928 20.8749 8.34388L20.5019 7.97088C20.4531 7.99955 20.399 8.02047 20.3428 8.03504V8.56458ZM20.3428 6.81451C20.4006 6.82908 20.4547 6.85235 20.505 6.8822L20.8787 6.50826C20.7252 6.39169 20.5428 6.31436 20.3428 6.28663V6.81451ZM20.0251 6.28663C19.8248 6.31436 19.6427 6.39169 19.4892 6.5085L19.8629 6.8822C19.9132 6.85235 19.9672 6.82908 20.0251 6.81451V6.28663ZM20.0251 8.56434V8.03504C19.9687 8.02024 19.9151 7.99932 19.8659 7.97041L19.4927 8.34388C19.6457 8.45858 19.8267 8.53661 20.0251 8.56434ZM19.265 8.12201L19.6413 7.74525C19.6121 7.69613 19.5879 7.64324 19.5729 7.58636H19.0457C19.0739 7.78544 19.1493 7.96924 19.265 8.12201ZM19.5729 7.26883C19.5877 7.21149 19.6102 7.15743 19.6394 7.10737L19.265 6.73296C19.1491 6.88643 19.0727 7.06882 19.0452 7.26836L19.5729 7.26883Z" fill="#444444"/>
<path d="M4.74066 5.59045C5.75366 5.59045 6.5751 6.41119 6.5751 7.42466C6.5751 7.50316 6.56876 7.57978 6.55889 7.65547C6.4456 8.55964 5.67539 9.25934 4.7409 9.25934C3.78031 9.25934 2.99341 8.52086 2.91397 7.58096C2.90974 7.52902 2.90598 7.47754 2.90598 7.42419C2.90551 6.41143 3.72696 5.59045 4.74066 5.59045ZM5.65964 6.73343L5.285 7.10783C5.31414 7.1579 5.33718 7.21149 5.35151 7.2693H5.87917C5.85167 7.06905 5.77505 6.8869 5.65964 6.73343ZM5.88081 7.5866H5.34963C5.33459 7.64277 5.3125 7.69683 5.28335 7.74572L5.65847 8.12036C5.77387 7.96806 5.85284 7.78544 5.88081 7.5866ZM4.89907 8.56458C5.09768 8.53708 5.27842 8.45928 5.43119 8.34388L5.05819 7.97088C5.0093 7.99955 4.95525 8.02047 4.89907 8.03504V8.56458ZM4.89907 6.81451C4.95689 6.82908 5.01095 6.85235 5.06101 6.8822L5.43495 6.50826C5.28147 6.39169 5.09885 6.31436 4.89907 6.28663V6.81451ZM4.58154 6.28663C4.38129 6.31436 4.19914 6.39169 4.0459 6.5085L4.4196 6.8822C4.4699 6.85235 4.52396 6.82908 4.58154 6.81451V6.28663ZM4.58154 8.56434V8.03504C4.52537 8.02024 4.47155 7.99932 4.42242 7.97041L4.04919 8.34388C4.2022 8.45858 4.3827 8.53661 4.58154 8.56434ZM3.82144 8.12201L4.19773 7.74525C4.16859 7.69613 4.14438 7.64324 4.12934 7.58636H3.60215C3.63036 7.78544 3.70533 7.96924 3.82144 8.12201ZM4.12887 7.26883C4.14367 7.21149 4.16624 7.15743 4.19538 7.10737L3.82097 6.73296C3.7051 6.88643 3.62871 7.06882 3.60098 7.26836L4.12887 7.26883Z" fill="#444444"/>
<path d="M0.83449 5.00632L1.18704 4.66951L1.18633 3.60692C1.1861 3.32794 1.28928 3.05906 1.47613 2.85223L2.7794 1.40888C2.78574 1.10898 3.00103 0.854908 3.29577 0.799675C4.84535 0.508468 9.6532 -0.244347 13.4586 0.778051C15.8097 1.40959 18.2 2.68089 18.2 2.68089C18.2 2.68089 22.3507 3.20971 23.3453 4.50616C23.6918 4.95743 23.837 5.55018 23.8897 6.08418C23.9633 6.83041 23.4725 7.51178 22.7413 7.67654L22.3575 7.76303C22.3608 7.74211 22.3657 7.72166 22.3683 7.70004C22.381 7.60227 22.3873 7.51107 22.3873 7.42341C22.3873 6.20851 21.3988 5.2202 20.1839 5.2202C18.9688 5.2202 17.9802 6.20851 17.9802 7.42341C17.9802 7.4871 17.9845 7.54868 17.9896 7.61096C17.996 7.68594 18.0065 7.75974 18.0204 7.83213L6.8979 7.85469C6.908 7.80346 6.91811 7.75245 6.92469 7.70004C6.93738 7.60227 6.94373 7.51107 6.94373 7.42341C6.94373 6.20851 5.95518 5.2202 4.74028 5.2202C3.52516 5.2202 2.53661 6.20851 2.53661 7.42341C2.53661 7.4871 2.54084 7.54868 2.54601 7.61096C2.55306 7.69675 2.56716 7.78089 2.58408 7.86339L2.43225 7.86363L1.79954 7.51695C1.13956 7.1557 0.717913 6.47387 0.689474 5.72223L0.676781 5.39342C0.67161 5.24816 0.728725 5.10761 0.83449 5.00632ZM16.0135 2.83037L15.8433 2.15042C15.8433 2.15042 13.2671 0.80273 8.95539 0.949391V2.9587L15.8609 3.50351C15.8609 3.50351 15.8238 3.07245 16.0135 2.83037ZM4.94852 2.64281L8.19552 2.899V0.991697C7.12776 1.06926 5.9674 1.23778 4.72195 1.53862C4.59597 1.56894 4.49491 1.66249 4.45472 1.78564C4.41429 1.9088 4.44061 2.04418 4.52452 2.14289L4.94852 2.64281Z" fill="#444444"/>
</svg>
