<svg width="17" height="18" viewBox="0 0 17 18" fill="none" xmlns="http://www.w3.org/2000/svg">
<circle cx="8.39331" cy="9.13525" r="8" fill="#F2B30F"/>
<circle cx="8.39331" cy="9.13525" r="6.57222" fill="#EFB520" stroke="#DEA71A" stroke-width="0.7"/>
<g filter="url(#filter0_d_1_6)">
<path d="M5.06757 9.10136C5.06757 8.63914 5.14935 8.18402 5.31291 7.73602C5.48357 7.28802 5.72891 6.88269 6.04891 6.52002C6.36891 6.15736 6.76002 5.86936 7.22224 5.65602C7.68446 5.43558 8.21068 5.32536 8.80091 5.32536C9.49068 5.32536 10.0916 5.47825 10.6036 5.78402C11.1156 6.0898 11.496 6.48802 11.7449 6.97869L10.6142 7.75736C10.4862 7.47291 10.3191 7.24891 10.1129 7.08536C9.90668 6.9218 9.68268 6.80447 9.44091 6.73336C9.20624 6.66225 8.97868 6.62669 8.75824 6.62669C8.38846 6.62669 8.06491 6.70136 7.78757 6.85069C7.51735 7.00002 7.2898 7.19558 7.10491 7.43736C6.92002 7.67914 6.78135 7.94936 6.68891 8.24802C6.60357 8.54669 6.56091 8.84536 6.56091 9.14402C6.56091 9.59202 6.65335 10.0116 6.83824 10.4027C7.02313 10.7867 7.28268 11.0996 7.61691 11.3414C7.95113 11.5831 8.33868 11.704 8.77957 11.704C9.00713 11.704 9.2418 11.6649 9.48357 11.5867C9.73246 11.5085 9.96002 11.384 10.1662 11.2134C10.3725 11.0427 10.5325 10.8222 10.6462 10.552L11.8516 11.2454C11.6951 11.6222 11.4498 11.9422 11.1156 12.2054C10.7814 12.4614 10.4045 12.6605 9.98491 12.8027C9.56535 12.9378 9.14935 13.0054 8.73691 13.0054C8.19646 13.0054 7.70224 12.8951 7.25424 12.6747C6.81335 12.4471 6.42935 12.1485 6.10224 11.7787C5.77513 11.4018 5.51913 10.9822 5.33424 10.52C5.15646 10.0507 5.06757 9.5778 5.06757 9.10136Z" fill="#FFD875"/>
<path d="M5.12601 7.66482L5.12599 7.66482L5.12504 7.66744C4.95372 8.1367 4.86757 8.615 4.86757 9.10136C4.86757 9.60328 4.96132 10.1001 5.14721 10.5909L5.14718 10.5909L5.14854 10.5943C5.34175 11.0773 5.60948 11.5161 5.9512 11.9098L5.95119 11.9098L5.95244 11.9112C6.29603 12.2996 6.69975 12.6136 7.16251 12.8524L7.16249 12.8524L7.16594 12.8541C7.64363 13.0892 8.16842 13.2054 8.73691 13.2054C9.17155 13.2054 9.60821 13.1341 10.0462 12.9931L10.0462 12.9931L10.0491 12.9921C10.4883 12.8432 10.8847 12.6341 11.2372 12.3641L11.2372 12.3641L11.2393 12.3625C11.5992 12.0792 11.8662 11.7319 12.0363 11.322L12.1037 11.1597L11.9513 11.072L10.746 10.3787L10.5498 10.2658L10.4619 10.4744C10.3594 10.7178 10.2178 10.9111 10.0387 11.0593C9.8519 11.2139 9.64717 11.3256 9.42361 11.3959L9.42361 11.3959L9.42201 11.3964C9.19782 11.4689 8.98394 11.504 8.77957 11.504C8.37771 11.504 8.03184 11.3947 7.73413 11.1793C7.42793 10.9578 7.18971 10.6714 7.01876 10.3166C6.84715 9.95334 6.76091 9.5633 6.76091 9.14402C6.76091 8.86537 6.80058 8.58588 6.88061 8.30508C6.96627 8.02914 7.09403 7.78083 7.26378 7.55885C7.43141 7.33963 7.63738 7.16236 7.88335 7.02627C8.12665 6.89549 8.41624 6.82669 8.75824 6.82669C8.95697 6.82669 9.16496 6.85872 9.38291 6.92476L9.3829 6.92477L9.38447 6.92523C9.6005 6.98877 9.80164 7.09376 9.98863 7.24206C10.1656 7.38238 10.3146 7.57877 10.4319 7.83943L10.5302 8.05805L10.7277 7.92208L11.8583 7.14341L12.0024 7.0442L11.9233 6.88822C11.6559 6.36103 11.2477 5.93578 10.7061 5.61232C10.1585 5.28528 9.52105 5.12536 8.80091 5.12536C8.18591 5.12536 7.62993 5.24024 7.13728 5.47496C6.65167 5.69927 6.23802 6.00341 5.89894 6.3877C5.56321 6.7682 5.3053 7.1942 5.12601 7.66482Z" stroke="#DAA726" stroke-width="0.4"/>
</g>
<defs>
<filter id="filter0_d_1_6" x="0.667572" y="0.925358" width="15.6882" height="16.48" filterUnits="userSpaceOnUse" color-interpolation-filters="sRGB">
<feFlood flood-opacity="0" result="BackgroundImageFix"/>
<feColorMatrix in="SourceAlpha" type="matrix" values="0 0 0 0 0 0 0 0 0 0 0 0 0 0 0 0 0 0 127 0" result="hardAlpha"/>
<feOffset/>
<feGaussianBlur stdDeviation="2"/>
<feColorMatrix type="matrix" values="0 0 0 0 0.6625 0 0 0 0 0.515538 0 0 0 0 0.143542 0 0 0 0.33 0"/>
<feBlend mode="normal" in2="BackgroundImageFix" result="effect1_dropShadow_1_6"/>
<feBlend mode="normal" in="SourceGraphic" in2="effect1_dropShadow_1_6" result="shape"/>
</filter>
</defs>
</svg>
