<svg width="49" height="49" viewBox="0 0 49 49" fill="none" xmlns="http://www.w3.org/2000/svg">
<g filter="url(#filter0_d_1_22)">
<path d="M24.2932 44.7231C35.3389 44.7231 44.2932 35.7688 44.2932 24.7231C44.2932 13.6774 35.3389 4.72314 24.2932 4.72314C13.2475 4.72314 4.29321 13.6774 4.29321 24.7231C4.29321 35.7688 13.2475 44.7231 24.2932 44.7231Z" fill="#ECEFF1"/>
<path d="M38.8456 36.4181C37.9756 35.7306 36.9156 35.2356 35.7656 34.9956L30.2831 33.8956C29.7081 33.7856 29.2931 33.2706 29.2931 32.6706V31.4131C29.6456 30.9181 29.9781 30.2606 30.3256 29.5731C30.5956 29.0406 31.0031 28.2381 31.2056 28.0306C32.3156 26.9156 33.3881 25.6631 33.7206 24.0481C34.0306 22.5331 33.7256 21.7381 33.3681 21.0981C33.3681 19.5006 33.3181 17.5006 32.9406 16.0456C32.8956 14.0756 32.5381 12.9681 31.6381 11.9981C31.0031 11.3106 30.0681 11.1506 29.3156 11.0231C29.0206 10.9731 28.6131 10.9031 28.4631 10.8231C27.1306 10.1031 25.8131 9.75064 24.2406 9.72314C20.9481 9.85814 16.9006 11.9531 15.5456 15.6881C15.1256 16.8256 15.1681 18.6931 15.2031 20.1931L15.1706 21.0956C14.8481 21.7256 14.5306 22.5256 14.8431 24.0456C15.1731 25.6631 16.2456 26.9181 17.3756 28.0481C17.5606 28.2381 17.9781 29.0481 18.2531 29.5831C18.6056 30.2681 18.9406 30.9231 19.2931 31.4156V32.6731C19.2931 33.2706 18.8756 33.7856 18.2981 33.8981L12.8106 34.9981C11.6681 35.2406 10.6081 35.7306 9.74059 36.4181C9.47059 36.6356 9.30059 36.9531 9.27309 37.2981C9.24559 37.6431 9.36059 37.9806 9.59309 38.2381C13.3281 42.3581 18.6856 44.7231 24.2931 44.7231C29.9006 44.7231 35.2606 42.3606 38.9931 38.2381C39.2256 37.9806 39.3431 37.6406 39.3131 37.2956C39.2856 36.9506 39.1156 36.6331 38.8456 36.4181Z" fill="#455A64"/>
</g>
<defs>
<filter id="filter0_d_1_22" x="0.293213" y="0.723145" width="48" height="48" filterUnits="userSpaceOnUse" color-interpolation-filters="sRGB">
<feFlood flood-opacity="0" result="BackgroundImageFix"/>
<feColorMatrix in="SourceAlpha" type="matrix" values="0 0 0 0 0 0 0 0 0 0 0 0 0 0 0 0 0 0 127 0" result="hardAlpha"/>
<feOffset/>
<feGaussianBlur stdDeviation="2"/>
<feColorMatrix type="matrix" values="0 0 0 0 0.583333 0 0 0 0 0.583333 0 0 0 0 0.583333 0 0 0 0.4 0"/>
<feBlend mode="normal" in2="BackgroundImageFix" result="effect1_dropShadow_1_22"/>
<feBlend mode="normal" in="SourceGraphic" in2="effect1_dropShadow_1_22" result="shape"/>
</filter>
</defs>
</svg>
